HIERARCHY
ROOT Hips
{
  OFFSET 0.0 0.0 0.0
  CHANNELS 6 Xposition Yposition Zposition Zrotation Yrotation Xrotation
  JOINT LHipJoint
  {
    OFFSET 0.0 0.0 0.0
    CHANNELS 3 Zrotation Yrotation Xrotation
    JOINT LeftUpLeg
    {
      OFFSET 1.363059998 -1.794630051 0.839290023
      CHANNELS 3 Zrotation Yrotation Xrotation
      JOINT LeftLeg
      {
        OFFSET 2.448110104 -6.726130009 0.0
        CHANNELS 3 Zrotation Yrotation Xrotation
        JOINT LeftFoot
        {
          OFFSET 2.562200069 -7.039589882 0.0
          CHANNELS 3 Zrotation Yrotation Xrotation
          JOINT LeftToeBase
          {
            OFFSET 0.157639995 -0.433109999 2.322550058
            CHANNELS 3 Zrotation Yrotation Xrotation
            End Site
            {
              OFFSET 0.0 -0.0 1.189659953
            }
          }
        }
      }
    }
  }
  JOINT RHipJoint
  {
    OFFSET 0.0 0.0 0.0
    CHANNELS 3 Zrotation Yrotation Xrotation
    JOINT RightUpLeg
    {
      OFFSET -1.305520058 -1.794630051 0.839290023
      CHANNELS 3 Zrotation Yrotation Xrotation
      JOINT RightLeg
      {
        OFFSET -2.54253006 -6.985549927 0.0
        CHANNELS 3 Zrotation Yrotation Xrotation
        JOINT RightFoot
        {
          OFFSET -2.568259954 -7.056230068 0.0
          CHANNELS 3 Zrotation Yrotation Xrotation
          JOINT RightToeBase
          {
            OFFSET -0.164729998 -0.452589989 2.363149881
            CHANNELS 3 Zrotation Yrotation Xrotation
            End Site
            {
              OFFSET -0.0 -0.0 1.21081996
            }
          }
        }
      }
    }
  }
  JOINT LowerBack
  {
    OFFSET 0.0 0.0 0.0
    CHANNELS 3 Zrotation Yrotation Xrotation
    JOINT Spine
    {
      OFFSET 0.028270001 2.035589933 -0.193379998
      CHANNELS 3 Zrotation Yrotation Xrotation
      JOINT Spine1
      {
        OFFSET 0.05672 2.04885006 -0.042750001
        CHANNELS 3 Zrotation Yrotation Xrotation
        JOINT Neck
        {
          OFFSET 0.0 0.0 0.0
          CHANNELS 3 Zrotation Yrotation Xrotation
          JOINT Neck1
          {
            OFFSET -0.054170001 1.74624002 0.172020003
            CHANNELS 3 Zrotation Yrotation Xrotation
            JOINT Head
            {
              OFFSET 0.10407 1.761360049 -0.123970002
              CHANNELS 3 Zrotation Yrotation Xrotation
              End Site
              {
                OFFSET 0.0372 1.770439982 -0.062410001
              }
            }
          }
        }
        JOINT LeftShoulder
        {
          OFFSET 0.0 0.0 0.0
          CHANNELS 3 Zrotation Yrotation Xrotation
          JOINT LeftArm
          {
            OFFSET 3.362410069 1.200889945 -0.311210006
            CHANNELS 3 Zrotation Yrotation Xrotation
            JOINT LeftForeArm
            {
              OFFSET 4.982999802 -0.0 -0.0
              CHANNELS 3 Zrotation Yrotation Xrotation
              JOINT LeftHand
              {
                OFFSET 3.483560085 -0.0 -0.0
                CHANNELS 3 Zrotation Yrotation Xrotation
                JOINT LeftFingerBase
                {
                  OFFSET 0.0 0.0 0.0
                  CHANNELS 3 Zrotation Yrotation Xrotation
                  JOINT LeftHandIndex1
                  {
                    OFFSET 0.715260029 -0.0 -0.0
                    CHANNELS 3 Zrotation Yrotation Xrotation
                    End Site
                    {
                      OFFSET 0.576659977 -0.0 -0.0
                    }
                  }
                }
                JOINT LThumb
                {
                  OFFSET 0.0 0.0 0.0
                  CHANNELS 3 Zrotation Yrotation Xrotation
                  End Site
                  {
                    OFFSET 0.585470021 -0.0 0.585470021
                  }
                }
              }
            }
          }
        }
        JOINT RightShoulder
        {
          OFFSET 0.0 0.0 0.0
          CHANNELS 3 Zrotation Yrotation Xrotation
          JOINT RightArm
          {
            OFFSET -3.136600018 1.374050021 -0.404650003
            CHANNELS 3 Zrotation Yrotation Xrotation
            JOINT RightForeArm
            {
              OFFSET -5.241899967 -0.0 -0.0
              CHANNELS 3 Zrotation Yrotation Xrotation
              JOINT RightHand
              {
                OFFSET -3.444169998 -0.0 -0.0
                CHANNELS 3 Zrotation Yrotation Xrotation
                JOINT RightFingerBase
                {
                  OFFSET 0.0 0.0 0.0
                  CHANNELS 3 Zrotation Yrotation Xrotation
                  JOINT RightHandIndex1
                  {
                    OFFSET -0.622529984 -0.0 -0.0
                    CHANNELS 3 Zrotation Yrotation Xrotation
                    End Site
                    {
                      OFFSET -0.501900017 -0.0 -0.0
                    }
                  }
                }
                JOINT RThumb
                {
                  OFFSET 0.0 0.0 0.0
                  CHANNELS 3 Zrotation Yrotation Xrotation
                  End Site
                  {
                    OFFSET -0.509559989 -0.0 0.509559989
                  }
                }
              }
            }
          }
        }
      }
    }
  }
}
MOTION
Frames: 4
Frame Time: 0.0083333
0.0 22.359600067 0.0 -71.400917053 -85.207313538 85.462814331 0.0 -0.0 0.0 -1.335399985 -3.425100327 -45.927406311 19.429830551 19.992200851 88.332595825 0.049500268 -14.02449894 -10.422699928 0.273699999 3.364900589 9.296298981 0.0 -0.0 0.0 30.393600464 5.431499958 -35.781291962 -6.640799522 -15.021800995 47.50239563 -1.368800282 -9.181899071 -27.141197205 -0.500299931 -4.534499645 12.58549881 5.815100193 0.362999976 26.899597168 5.058199883 2.235599279 4.050098896 1.613499999 0.721899867 -10.390098572 -0.035500031 2.444699287 -11.612600327 0.141299933 2.366699934 -18.55270195 0.084399991 0.728299797 -4.15019989 0.0 -0.0 0.0 -79.739692688 -44.475605011 60.826591492 36.873001099 -46.104194641 -16.148403168 0.0 -0.0 21.267400742 5.103700161 5.100500584 0.454899997 -7.125 0.0 0.0 -17.696504593 34.638504028 4.690096855 0.0 -0.0 0.0 93.874855042 64.133506775 61.557044983 -24.376399994 35.559692383 -7.924399376 0.0 -0.0 22.726604462 -44.866596222 -0.686099887 0.682899892 7.125 -0.0 0.0 -14.447701454 -30.752595901 -5.175700188 
-0.027301788 22.429000854 -0.037299156 -66.553070068 -85.255744934 80.611076355 0.0 -0.0 0.0 -1.20449996 -3.350198746 -47.306694031 20.065990448 19.999904633 90.192909241 0.056600016 -14.811902046 -11.026000977 0.251600087 3.227601051 8.91310215 0.0 -0.0 0.0 30.375402451 5.364902496 -35.097301483 -6.343000412 -14.752695084 46.343299866 -1.266499996 -9.524001122 -26.651901245 -0.522199869 -4.631399155 12.860198021 5.773799896 0.525100231 26.790000916 4.982501507 2.425100327 4.033699512 1.484600067 0.814400077 -10.348599434 0.075099975 1.960400105 -12.779898643 0.701699853 1.7924999 -17.261600494 0.258399993 0.447499961 -3.478800058 0.0 -0.0 0.0 -77.406326294 -43.711906433 61.321022034 41.627311707 -49.005020142 -19.658807755 0.0 -0.0 19.636802673 9.712203026 4.788500786 0.818600237 -7.125 0.0 0.0 -13.940001488 34.562896729 3.662499905 0.0 -0.0 0.0 92.419502258 63.633792877 59.504104614 -24.373498917 35.55670166 -7.922698498 0.0 -0.0 22.824699402 -45.546695709 -0.467500001 0.476499945 7.125 -0.0 0.0 -14.930503845 -30.446603775 -5.47289896 
-0.055099487 22.502599716 -0.073199272 -63.847652435 -84.887069702 77.905715942 0.0 -0.0 0.0 -0.57000041 -3.181699991 -48.748699188 20.684713364 19.988790512 92.002288818 0.121399969 -15.43789959 -12.10710144 0.152099982 2.513299942 6.926599026 0.0 -0.0 0.0 30.890306473 5.09430027 -34.476703644 -6.053301334 -14.479799271 45.195201874 -1.16530025 -9.797702789 -26.108703613 -0.498400033 -4.526000023 12.561497688 6.094499588 0.616999865 26.725107193 4.995698929 2.630899429 4.020400047 1.245599866 0.898600101 -10.312302589 0.803700149 2.525499821 -13.340499878 -0.76639998 2.348899841 -16.676702499 -0.333799958 0.734700024 -3.147300243 0.0 -0.0 0.0 -79.867385864 -44.409492493 60.774177551 41.146297455 -48.734600067 -19.29649353 0.0 -0.0 22.653497696 12.32900238 0.869700134 0.190100044 -7.125 0.0 0.0 -11.271300316 30.755598068 3.991001606 0.0 -0.0 0.0 91.254440308 63.16021347 57.779937744 -24.355098724 35.537601471 -7.911999702 0.0 -0.0 22.855503082 -46.254997253 -0.218600005 0.228399977 7.125 -0.0 0.0 -15.423101425 -30.091604233 -5.801600933 
-0.07559967 22.589199066 -0.102799416 -57.686782837 -84.697845459 71.148773193 0.0 -0.0 0.0 -0.482600302 -3.258600235 -49.461704254 21.211725235 19.964805603 93.544700623 0.185900167 -16.060804367 -13.11869812 0.103300005 2.072700262 5.706599712 0.0 -0.0 0.0 31.037401199 4.120197296 -33.473899841 -5.767002106 -14.198701859 44.039203644 -1.16890049 -9.442198753 -25.856498718 -0.609700084 -4.99780035 13.902199745 6.419299126 0.491200894 27.412696838 4.841100216 2.586699486 4.137199879 0.898199975 0.852500081 -10.509902954 1.089999914 2.901799679 -12.813501358 -1.588500023 2.711799622 -17.663896561 -0.662500024 0.901099801 -3.571300268 0.0 -0.0 0.0 -80.127983093 -44.332294464 60.04327774 42.811897278 -49.650402069 -20.557292938 0.0 -0.0 23.449497223 14.927700043 -3.468400478 -0.924000144 -7.125 0.0 0.0 -8.866199493 26.370197296 4.05109787 0.0 -0.0 0.0 90.692398071 62.785591125 56.532600403 -24.300601959 35.480495453 -7.880302906 0.0 -0.0 22.911699295 -46.608100891 0.0277 -0.029300001 7.125 -0.0 0.0 -15.638802528 -29.740497589 -6.02489996 
